<svg xmlns="http://www.w3.org/2000/svg" width="29.981" height="29.981" viewBox="0 0 29.981 29.981">
  <g id="Group_83" data-name="Group 83" transform="translate(-1591.5 -50.5)">
    <path id="Path_15" data-name="Path 15" d="M20.859,17.179A3.679,3.679,0,1,1,17.179,13.5,3.679,3.679,0,0,1,20.859,17.179Z" transform="translate(1589.311 48.311)" fill="none" stroke="white" stroke-linecap="round" stroke-linejoin="round" stroke-width="3"/>
    <path id="Path_16" data-name="Path 16" d="M24.066,18.67a2.024,2.024,0,0,0,.4,2.232l.074.074a2.454,2.454,0,1,1-3.471,3.471L21,24.373a2.04,2.04,0,0,0-3.459,1.447v.208a2.453,2.453,0,1,1-4.906,0v-.11a2.024,2.024,0,0,0-1.325-1.852,2.024,2.024,0,0,0-2.232.4l-.074.074a2.454,2.454,0,1,1-3.471-3.471L5.609,21a2.04,2.04,0,0,0-1.447-3.459H3.953a2.453,2.453,0,1,1,0-4.906h.11a2.024,2.024,0,0,0,1.852-1.325,2.024,2.024,0,0,0-.4-2.232l-.074-.074A2.454,2.454,0,1,1,8.908,5.535l.074.074a2.024,2.024,0,0,0,2.232.4h.1a2.024,2.024,0,0,0,1.226-1.852V3.953a2.453,2.453,0,1,1,4.906,0v.11A2.04,2.04,0,0,0,20.9,5.51l.074-.074a2.454,2.454,0,1,1,3.471,3.471l-.074.074a2.024,2.024,0,0,0-.4,2.232v.1a2.024,2.024,0,0,0,1.852,1.226h.208a2.453,2.453,0,0,1,0,4.906h-.11a2.024,2.024,0,0,0-1.852,1.226Z" transform="translate(1591.5 50.5)" fill="none" stroke="white" stroke-linecap="round" stroke-linejoin="round" stroke-width="3"/>
  </g>
</svg>
