<?xml version="1.0" encoding="UTF-8" standalone="no"?><!DOCTYPE svg PUBLIC "-//W3C//DTD SVG 1.1//EN" "http://www.w3.org/Graphics/SVG/1.1/DTD/svg11.dtd"><svg width="100%" height="100%" viewBox="0 0 2134 2134" version="1.1" xmlns="http://www.w3.org/2000/svg" xmlns:xlink="http://www.w3.org/1999/xlink" xml:space="preserve" xmlns:serif="http://www.serif.com/" style="fill-rule:evenodd;clip-rule:evenodd;"><path d="M1933.33,266.667l-1733.33,-0c-110.458,-0 -200,89.541 -200,200l0,1200c0,110.458 89.542,200 200,200l1733.33,-0c110.459,-0 200,-89.542 200,-200l0,-1200c0,-110.459 -89.541,-200 -200,-200Zm0,200l0,170.021c-93.425,76.079 -242.366,194.379 -560.779,443.708c-70.171,55.196 -209.171,187.8 -305.887,186.254c-96.7,1.563 -235.746,-131.079 -305.888,-186.254c-318.362,-249.292 -467.342,-367.617 -560.779,-443.708l-0,-170.021l1733.33,-0Zm-1733.33,1200l0,-773.342c95.475,76.046 230.871,182.758 437.242,344.358c91.071,71.688 250.558,229.942 429.425,228.979c177.987,0.963 335.454,-154.995 429.387,-228.945c206.367,-161.596 341.8,-268.338 437.279,-344.388l0,773.338l-1733.33,-0Z" style="fill:#a2a2a2;fill-rule:nonzero;stroke:#a2a2a2;stroke-width:4.17px;"/></svg>