<svg xmlns="http://www.w3.org/2000/svg" width="24.615" height="20" viewBox="0 0 24.615 20">
  <path id="Icon_awesome-list" data-name="Icon awesome-list" d="M3.846,18.76H.769A.769.769,0,0,0,0,19.529v3.077a.769.769,0,0,0,.769.769H3.846a.769.769,0,0,0,.769-.769V19.529A.769.769,0,0,0,3.846,18.76Zm0-15.385H.769A.769.769,0,0,0,0,4.144V7.221a.769.769,0,0,0,.769.769H3.846a.769.769,0,0,0,.769-.769V4.144A.769.769,0,0,0,3.846,3.375Zm0,7.692H.769A.769.769,0,0,0,0,11.837v3.077a.769.769,0,0,0,.769.769H3.846a.769.769,0,0,0,.769-.769V11.837A.769.769,0,0,0,3.846,11.067Zm20,8.462H8.462a.769.769,0,0,0-.769.769v1.538a.769.769,0,0,0,.769.769H23.846a.769.769,0,0,0,.769-.769V20.3A.769.769,0,0,0,23.846,19.529Zm0-15.385H8.462a.769.769,0,0,0-.769.769V6.452a.769.769,0,0,0,.769.769H23.846a.769.769,0,0,0,.769-.769V4.913A.769.769,0,0,0,23.846,4.144Zm0,7.692H8.462a.769.769,0,0,0-.769.769v1.538a.769.769,0,0,0,.769.769H23.846a.769.769,0,0,0,.769-.769V12.606A.769.769,0,0,0,23.846,11.837Z" transform="translate(0 -3.375)" fill="#808f9d"/>
</svg>
