<svg xmlns="http://www.w3.org/2000/svg" width="23.572" height="23.572" viewBox="0 0 23.572 23.572">
  <defs>
    <style>
      .cls-1 {
        fill: #a2a2a2;
      }
    </style>
  </defs>
  <path id="Icon_material-person-outline" data-name="Icon material-person-outline" class="cls-1" d="M17.786,8.8a3.094,3.094,0,1,1-3.094,3.094A3.093,3.093,0,0,1,17.786,8.8m0,13.259c4.375,0,8.987,2.151,8.987,3.094v1.621H8.8V25.152c0-.943,4.611-3.094,8.987-3.094M17.786,6a5.893,5.893,0,1,0,5.893,5.893A5.891,5.891,0,0,0,17.786,6Zm0,13.259C13.852,19.259,6,21.233,6,25.152v4.42H29.572v-4.42C29.572,21.233,21.719,19.259,17.786,19.259Z" transform="translate(-6 -6)"/>
</svg>
